<svg width="416" height="452" viewBox="0 0 416 452" fill="none" xmlns="http://www.w3.org/2000/svg">
<path d="M97.6583 99.2108H135.457V95.9634C123.379 97.2319 111.541 97.0035 97.3474 98.2847C97.4951 98.5747 97.5999 98.887 97.6583 99.2108Z" fill="#92E3A9"/>
<path d="M412.05 181.144C406.262 146.666 390.334 119.57 369.863 94.5297C367.519 91.6629 365.203 88.9398 362.915 86.3605H302.039C301.84 86.9216 301.503 87.4161 301.064 87.7927C300.624 88.1693 300.097 88.4143 299.539 88.5024C298.98 88.5905 298.409 88.5184 297.885 88.2936C297.361 88.0689 296.903 87.6996 296.559 87.224C296.215 86.7485 295.997 86.184 295.928 85.5891C295.859 84.9941 295.941 84.3904 296.166 83.8404C296.39 83.2904 296.75 82.8141 297.206 82.461C297.663 82.1079 298.2 81.8907 298.763 81.832V66.9777H263.463V86.3859H221.803V121.524H220.607V85.1174H262.268V65.7092H328.214C328.363 64.8844 328.796 64.1481 329.43 63.6442C330.063 63.1403 330.851 62.905 331.639 62.9843C332.427 63.0635 333.159 63.4517 333.691 64.0729C334.224 64.6941 334.519 65.5037 334.519 66.3434C334.519 67.1832 334.224 67.9928 333.691 68.614C333.159 69.2352 332.427 69.6233 331.639 69.7026C330.851 69.7819 330.063 69.5466 329.43 69.0427C328.796 68.5388 328.363 67.8025 328.214 66.9777H299.982V81.9334C300.628 82.1343 301.196 82.547 301.607 83.1123C302.017 83.6775 302.248 84.3662 302.266 85.0793H361.732C316.735 34.9478 280.228 35.3664 251.47 42.9901C223.381 50.449 210.072 67.3582 179.497 82.6311V88.9737H205.361V90.2422H178.301V83.2527C176.089 84.3309 173.805 85.3965 171.413 86.462C160.337 91.4232 148.618 94.5794 136.652 95.8236V100.466H97.6583C97.5062 101.287 97.0718 102.019 96.4395 102.52C95.8073 103.02 95.0222 103.254 94.2369 103.175C93.4516 103.096 92.722 102.71 92.1897 102.092C91.6574 101.474 91.3605 100.669 91.3566 99.8321C91.3587 99.5039 91.4112 99.1783 91.5121 98.868C84.1539 99.7419 76.8423 101.012 69.6056 102.674C25.2307 112.822 0 176.425 0 212.793C0 249.161 2.66656 301.728 40.8952 328.976C79.1239 356.224 169.679 304.684 205.349 306.726C241.019 308.769 281.878 351.124 333.296 351.124C405.186 351.124 423.912 252.041 412.05 181.144ZM364.554 220.658H383.686V186.865C382.908 186.707 382.214 186.247 381.739 185.575C381.264 184.904 381.043 184.068 381.117 183.232C381.192 182.396 381.558 181.62 382.144 181.055C382.729 180.489 383.492 180.176 384.284 180.176C385.075 180.176 385.839 180.489 386.424 181.055C387.01 181.62 387.376 182.396 387.45 183.232C387.525 184.068 387.303 184.904 386.828 185.575C386.353 186.247 385.659 186.707 384.882 186.865V221.952H365.749V244.569H364.554V220.658ZM295.498 150.357H335.52C335.669 149.532 336.103 148.796 336.736 148.292C337.369 147.788 338.157 147.553 338.945 147.632C339.733 147.711 340.465 148.099 340.997 148.721C341.53 149.342 341.825 150.151 341.825 150.991C341.825 151.831 341.53 152.64 340.997 153.262C340.465 153.883 339.733 154.271 338.945 154.35C338.157 154.43 337.369 154.194 336.736 153.69C336.103 153.186 335.669 152.45 335.52 151.625H295.462L295.498 150.357ZM81.2763 147.617C82.0669 147.624 82.8266 147.943 83.4062 148.514C83.9859 149.084 84.3436 149.864 84.4092 150.699H143.564V151.968H84.2777C84.1193 152.574 83.8043 153.122 83.3681 153.548C82.9319 153.975 82.3919 154.263 81.8093 154.382C81.2266 154.5 80.6244 154.442 80.0707 154.217C79.517 153.991 79.0339 153.605 78.6759 153.103C78.318 152.601 78.0995 152.003 78.045 151.377C77.9906 150.75 78.1025 150.12 78.368 149.557C78.6335 148.994 79.0421 148.521 79.5476 148.192C80.053 147.863 80.6353 147.69 81.2285 147.693L81.2763 147.617ZM141.268 291.403H121.071V300.282C121.64 300.397 122.168 300.673 122.598 301.083C123.029 301.492 123.347 302.018 123.517 302.604C123.687 303.19 123.704 303.815 123.564 304.41C123.425 305.005 123.135 305.549 122.727 305.983C122.318 306.417 121.805 306.724 121.244 306.872C120.682 307.02 120.094 307.002 119.541 306.822C118.989 306.641 118.493 306.304 118.107 305.847C117.721 305.39 117.461 304.83 117.353 304.227H78.8011V282.954H62.3593C62.2008 283.543 61.8946 284.074 61.4733 284.492C61.0521 284.91 60.5316 285.198 59.9677 285.326V317.813H40.8355C40.5567 318.598 40.0122 319.245 39.3083 319.627C38.6043 320.009 37.7913 320.1 37.0279 319.881C36.2645 319.661 35.6055 319.148 35.1794 318.442C34.7532 317.735 34.5906 316.885 34.7231 316.058C34.8557 315.231 35.2739 314.486 35.8962 313.968C36.5186 313.451 37.3004 313.197 38.0892 313.258C38.8779 313.319 39.6171 313.689 40.1624 314.297C40.7078 314.904 41.0202 315.706 41.0387 316.544H58.7481V285.326C58.1842 285.198 57.6637 284.91 57.2425 284.492C56.8212 284.074 56.515 283.543 56.3565 282.954H31.6759C31.4571 283.765 30.9614 284.459 30.2856 284.903C29.6098 285.346 28.8025 285.506 28.0214 285.351C27.2403 285.197 26.5415 284.739 26.0617 284.067C25.5819 283.395 25.3555 282.558 25.4267 281.718C25.4979 280.879 25.8617 280.098 26.4469 279.527C27.032 278.957 27.7966 278.639 28.5912 278.635C29.3857 278.631 30.1532 278.941 30.7435 279.505C31.3338 280.07 31.7047 280.847 31.7835 281.686H56.1652C56.2483 280.861 56.6161 280.098 57.1978 279.543C57.7794 278.988 58.5339 278.681 59.316 278.681C60.0982 278.681 60.8527 278.988 61.4343 279.543C62.016 280.098 62.3838 280.861 62.4669 281.686H79.9968V302.984H117.353C117.473 302.321 117.777 301.712 118.227 301.235C118.677 300.758 119.251 300.435 119.876 300.308V290.159H141.22L141.268 291.403ZM64.6671 246.129C64.5249 246.897 64.1359 247.588 63.5666 248.084C62.9974 248.581 62.2832 248.853 61.5462 248.853C60.8091 248.853 60.0949 248.581 59.5257 248.084C58.9564 247.588 58.5674 246.897 58.4252 246.129H47.8785C47.7297 246.954 47.2964 247.691 46.6631 248.194C46.0299 248.698 45.2423 248.934 44.4542 248.854C43.6661 248.775 42.9343 248.387 42.4016 247.766C41.8689 247.145 41.5737 246.335 41.5737 245.495C41.5737 244.655 41.8689 243.846 42.4016 243.225C42.9343 242.604 43.6661 242.215 44.4542 242.136C45.2423 242.057 46.0299 242.292 46.6631 242.796C47.2964 243.3 47.7297 244.036 47.8785 244.861H58.4252C58.563 244.097 58.9453 243.407 59.5075 242.908C60.0696 242.408 60.7771 242.131 61.5103 242.121V232.569H34.0076C33.9594 233.41 33.6174 234.202 33.0484 234.79C32.4793 235.378 31.7241 235.72 30.9302 235.749C30.1364 235.777 29.3609 235.491 28.7552 234.946C28.1495 234.401 27.7572 233.636 27.6548 232.8C27.5524 231.965 27.7473 231.118 28.2014 230.427C28.6556 229.736 29.3363 229.249 30.1108 229.061C30.8852 228.874 31.6977 229 32.3895 229.414C33.0814 229.828 33.6029 230.5 33.8522 231.301H62.718V242.362C63.2189 242.577 63.6609 242.922 64.0035 243.365C64.3462 243.808 64.5784 244.336 64.6791 244.899H388.457C388.606 244.074 389.039 243.338 389.672 242.834C390.306 242.33 391.093 242.095 391.881 242.174C392.669 242.253 393.401 242.642 393.934 243.263C394.467 243.884 394.762 244.694 394.762 245.533C394.762 246.373 394.467 247.183 393.934 247.804C393.401 248.425 392.669 248.813 391.881 248.892C391.093 248.972 390.306 248.736 389.672 248.232C389.039 247.729 388.606 246.992 388.457 246.168L64.6671 246.129ZM389.33 305.889C389.44 305.061 389.837 304.306 390.444 303.772C391.05 303.238 391.823 302.963 392.611 303C393.398 303.038 394.144 303.386 394.703 303.976C395.262 304.566 395.593 305.355 395.633 306.191C395.672 307.026 395.416 307.847 394.916 308.493C394.415 309.139 393.706 309.564 392.926 309.685C392.145 309.806 391.351 309.614 390.697 309.146C390.043 308.679 389.577 307.97 389.39 307.158H343.508V294.269C342.937 294.108 342.42 293.778 342.018 293.317C341.616 292.857 341.345 292.286 341.236 291.669H290.261V290.4H341.236C341.378 289.633 341.767 288.942 342.337 288.446C342.906 287.949 343.62 287.677 344.357 287.677C345.094 287.677 345.808 287.949 346.378 288.446C346.947 288.942 347.336 289.633 347.478 290.4H389.33C389.479 289.576 389.912 288.839 390.545 288.336C391.179 287.832 391.966 287.596 392.754 287.676C393.542 287.755 394.274 288.143 394.807 288.764C395.34 289.385 395.635 290.195 395.635 291.035C395.635 291.874 395.34 292.684 394.807 293.305C394.274 293.926 393.542 294.315 392.754 294.394C391.966 294.473 391.179 294.238 390.545 293.734C389.912 293.23 389.479 292.494 389.33 291.669H347.478C347.347 292.374 347.007 293.016 346.508 293.502C346.009 293.988 345.377 294.293 344.704 294.371V305.889H389.33Z" fill="#92E3A9"/>
<g opacity="0.7">
<path d="M97.6583 99.2108H135.457V95.9634C123.379 97.2319 111.541 97.0035 97.3474 98.2847C97.4951 98.5747 97.5999 98.887 97.6583 99.2108Z" fill="white"/>
<path d="M412.05 181.144C406.262 146.666 390.334 119.57 369.863 94.5297C367.519 91.6629 365.203 88.9398 362.915 86.3605H302.039C301.84 86.9216 301.503 87.4161 301.064 87.7927C300.624 88.1693 300.097 88.4143 299.539 88.5024C298.98 88.5905 298.409 88.5184 297.885 88.2936C297.361 88.0689 296.903 87.6996 296.559 87.224C296.215 86.7485 295.997 86.184 295.928 85.5891C295.859 84.9941 295.941 84.3904 296.166 83.8404C296.39 83.2904 296.75 82.8141 297.206 82.461C297.663 82.1079 298.2 81.8907 298.763 81.832V66.9777H263.463V86.3859H221.803V121.524H220.607V85.1174H262.268V65.7092H328.214C328.363 64.8844 328.796 64.1481 329.43 63.6442C330.063 63.1403 330.851 62.905 331.639 62.9843C332.427 63.0635 333.159 63.4517 333.691 64.0729C334.224 64.6941 334.519 65.5037 334.519 66.3434C334.519 67.1832 334.224 67.9928 333.691 68.614C333.159 69.2352 332.427 69.6233 331.639 69.7026C330.851 69.7819 330.063 69.5466 329.43 69.0427C328.796 68.5388 328.363 67.8025 328.214 66.9777H299.982V81.9334C300.628 82.1343 301.196 82.547 301.607 83.1123C302.017 83.6775 302.248 84.3662 302.266 85.0793H361.732C316.735 34.9478 280.228 35.3664 251.47 42.9901C223.381 50.449 210.072 67.3582 179.497 82.6311V88.9737H205.361V90.2422H178.301V83.2527C176.089 84.3309 173.805 85.3965 171.413 86.462C160.337 91.4232 148.618 94.5794 136.652 95.8236V100.466H97.6583C97.5062 101.287 97.0718 102.019 96.4395 102.52C95.8073 103.02 95.0222 103.254 94.2369 103.175C93.4516 103.096 92.722 102.71 92.1897 102.092C91.6574 101.474 91.3605 100.669 91.3566 99.8321C91.3587 99.5039 91.4112 99.1783 91.5121 98.868C84.1539 99.7419 76.8423 101.012 69.6056 102.674C25.2307 112.822 0 176.425 0 212.793C0 249.161 2.66656 301.728 40.8952 328.976C79.1239 356.224 169.679 304.684 205.349 306.726C241.019 308.769 281.878 351.124 333.296 351.124C405.186 351.124 423.912 252.041 412.05 181.144ZM364.554 220.658H383.686V186.865C382.908 186.707 382.214 186.247 381.739 185.575C381.264 184.904 381.043 184.068 381.117 183.232C381.192 182.396 381.558 181.62 382.144 181.055C382.729 180.489 383.492 180.176 384.284 180.176C385.075 180.176 385.839 180.489 386.424 181.055C387.01 181.62 387.376 182.396 387.45 183.232C387.525 184.068 387.303 184.904 386.828 185.575C386.353 186.247 385.659 186.707 384.882 186.865V221.952H365.749V244.569H364.554V220.658ZM295.498 150.357H335.52C335.669 149.532 336.103 148.796 336.736 148.292C337.369 147.788 338.157 147.553 338.945 147.632C339.733 147.711 340.465 148.099 340.997 148.721C341.53 149.342 341.825 150.151 341.825 150.991C341.825 151.831 341.53 152.64 340.997 153.262C340.465 153.883 339.733 154.271 338.945 154.35C338.157 154.43 337.369 154.194 336.736 153.69C336.103 153.186 335.669 152.45 335.52 151.625H295.462L295.498 150.357ZM81.2763 147.617C82.0669 147.624 82.8266 147.943 83.4062 148.514C83.9859 149.084 84.3436 149.864 84.4092 150.699H143.564V151.968H84.2777C84.1193 152.574 83.8043 153.122 83.3681 153.548C82.9319 153.975 82.3919 154.263 81.8093 154.382C81.2266 154.5 80.6244 154.442 80.0707 154.217C79.517 153.991 79.0339 153.605 78.6759 153.103C78.318 152.601 78.0995 152.003 78.045 151.377C77.9906 150.75 78.1025 150.12 78.368 149.557C78.6335 148.994 79.0421 148.521 79.5476 148.192C80.053 147.863 80.6353 147.69 81.2285 147.693L81.2763 147.617ZM141.268 291.403H121.071V300.282C121.64 300.397 122.168 300.673 122.598 301.083C123.029 301.492 123.347 302.018 123.517 302.604C123.687 303.19 123.704 303.815 123.564 304.41C123.425 305.005 123.135 305.549 122.727 305.983C122.318 306.417 121.805 306.724 121.244 306.872C120.682 307.02 120.094 307.002 119.541 306.822C118.989 306.641 118.493 306.304 118.107 305.847C117.721 305.39 117.461 304.83 117.353 304.227H78.8011V282.954H62.3593C62.2008 283.543 61.8946 284.074 61.4733 284.492C61.0521 284.91 60.5316 285.198 59.9677 285.326V317.813H40.8355C40.5567 318.598 40.0122 319.245 39.3083 319.627C38.6043 320.009 37.7913 320.1 37.0279 319.881C36.2645 319.661 35.6055 319.148 35.1794 318.442C34.7532 317.735 34.5906 316.885 34.7231 316.058C34.8557 315.231 35.2739 314.486 35.8962 313.968C36.5186 313.451 37.3004 313.197 38.0892 313.258C38.8779 313.319 39.6171 313.689 40.1624 314.297C40.7078 314.904 41.0202 315.706 41.0387 316.544H58.7481V285.326C58.1842 285.198 57.6637 284.91 57.2425 284.492C56.8212 284.074 56.515 283.543 56.3565 282.954H31.6759C31.4571 283.765 30.9614 284.459 30.2856 284.903C29.6098 285.346 28.8025 285.506 28.0214 285.351C27.2403 285.197 26.5415 284.739 26.0617 284.067C25.5819 283.395 25.3555 282.558 25.4267 281.718C25.4979 280.879 25.8617 280.098 26.4469 279.527C27.032 278.957 27.7966 278.639 28.5912 278.635C29.3857 278.631 30.1532 278.941 30.7435 279.505C31.3338 280.07 31.7047 280.847 31.7835 281.686H56.1652C56.2483 280.861 56.6161 280.098 57.1978 279.543C57.7794 278.988 58.5339 278.681 59.316 278.681C60.0982 278.681 60.8527 278.988 61.4343 279.543C62.016 280.098 62.3838 280.861 62.4669 281.686H79.9968V302.984H117.353C117.473 302.321 117.777 301.712 118.227 301.235C118.677 300.758 119.251 300.435 119.876 300.308V290.159H141.22L141.268 291.403ZM64.6671 246.129C64.5249 246.897 64.1359 247.588 63.5666 248.084C62.9974 248.581 62.2832 248.853 61.5462 248.853C60.8091 248.853 60.0949 248.581 59.5257 248.084C58.9564 247.588 58.5674 246.897 58.4252 246.129H47.8785C47.7297 246.954 47.2964 247.691 46.6631 248.194C46.0299 248.698 45.2423 248.934 44.4542 248.854C43.6661 248.775 42.9343 248.387 42.4016 247.766C41.8689 247.145 41.5737 246.335 41.5737 245.495C41.5737 244.655 41.8689 243.846 42.4016 243.225C42.9343 242.604 43.6661 242.215 44.4542 242.136C45.2423 242.057 46.0299 242.292 46.6631 242.796C47.2964 243.3 47.7297 244.036 47.8785 244.861H58.4252C58.563 244.097 58.9453 243.407 59.5075 242.908C60.0696 242.408 60.7771 242.131 61.5103 242.121V232.569H34.0076C33.9594 233.41 33.6174 234.202 33.0484 234.79C32.4793 235.378 31.7241 235.72 30.9302 235.749C30.1364 235.777 29.3609 235.491 28.7552 234.946C28.1495 234.401 27.7572 233.636 27.6548 232.8C27.5524 231.965 27.7473 231.118 28.2014 230.427C28.6556 229.736 29.3363 229.249 30.1108 229.061C30.8852 228.874 31.6977 229 32.3895 229.414C33.0814 229.828 33.6029 230.5 33.8522 231.301H62.718V242.362C63.2189 242.577 63.6609 242.922 64.0035 243.365C64.3462 243.808 64.5784 244.336 64.6791 244.899H388.457C388.606 244.074 389.039 243.338 389.672 242.834C390.306 242.33 391.093 242.095 391.881 242.174C392.669 242.253 393.401 242.642 393.934 243.263C394.467 243.884 394.762 244.694 394.762 245.533C394.762 246.373 394.467 247.183 393.934 247.804C393.401 248.425 392.669 248.813 391.881 248.892C391.093 248.972 390.306 248.736 389.672 248.232C389.039 247.729 388.606 246.992 388.457 246.168L64.6671 246.129ZM389.33 305.889C389.44 305.061 389.837 304.306 390.444 303.772C391.05 303.238 391.823 302.963 392.611 303C393.398 303.038 394.144 303.386 394.703 303.976C395.262 304.566 395.593 305.355 395.633 306.191C395.672 307.026 395.416 307.847 394.916 308.493C394.415 309.139 393.706 309.564 392.926 309.685C392.145 309.806 391.351 309.614 390.697 309.146C390.043 308.679 389.577 307.97 389.39 307.158H343.508V294.269C342.937 294.108 342.42 293.778 342.018 293.317C341.616 292.857 341.345 292.286 341.236 291.669H290.261V290.4H341.236C341.378 289.633 341.767 288.942 342.337 288.446C342.906 287.949 343.62 287.677 344.357 287.677C345.094 287.677 345.808 287.949 346.378 288.446C346.947 288.942 347.336 289.633 347.478 290.4H389.33C389.479 289.576 389.912 288.839 390.545 288.336C391.179 287.832 391.966 287.596 392.754 287.676C393.542 287.755 394.274 288.143 394.807 288.764C395.34 289.385 395.635 290.195 395.635 291.035C395.635 291.874 395.34 292.684 394.807 293.305C394.274 293.926 393.542 294.315 392.754 294.394C391.966 294.473 391.179 294.238 390.545 293.734C389.912 293.23 389.479 292.494 389.33 291.669H347.478C347.347 292.374 347.007 293.016 346.508 293.502C346.009 293.988 345.377 294.293 344.704 294.371V305.889H389.33Z" fill="white"/>
</g>
<path d="M234.813 66.6862H204.5C203.833 66.6862 203.193 66.4059 202.72 65.9067C202.247 65.4075 201.98 64.73 201.977 64.0223V48.8763C201.977 43.9038 203.839 39.1351 207.153 35.619C210.468 32.103 214.963 30.1277 219.65 30.1277C224.338 30.1277 228.833 32.103 232.147 35.619C235.462 39.1351 237.324 43.9038 237.324 48.8763V64.0223C237.324 64.7288 237.059 65.4064 236.588 65.9059C236.117 66.4055 235.479 66.6862 234.813 66.6862ZM207.023 61.3457H232.29V48.8763C232.342 47.0816 232.053 45.2942 231.442 43.62C230.83 41.9457 229.908 40.4188 228.73 39.1298C227.552 37.8409 226.141 36.8161 224.583 36.1162C223.024 35.4164 221.349 35.0558 219.656 35.0558C217.964 35.0558 216.288 35.4164 214.73 36.1162C213.171 36.8161 211.761 37.8409 210.583 39.1298C209.404 40.4188 208.482 41.9457 207.871 43.62C207.259 45.2942 206.971 47.0816 207.023 48.8763V61.3457Z" fill="#92E3A9" stroke="#263238" stroke-linecap="round" stroke-linejoin="round"/>
<path d="M238.699 59.3918H200.112V93.9841H238.699V59.3918Z" fill="#263238" stroke="#263238" stroke-linecap="round" stroke-linejoin="round"/>
<path d="M223.417 73.7514C223.42 72.9607 223.225 72.1834 222.852 71.4989C222.479 70.8143 221.941 70.2472 221.294 69.8553C220.646 69.4635 219.913 69.2611 219.167 69.2688C218.422 69.2764 217.692 69.4939 217.052 69.899C216.412 70.3041 215.884 70.8822 215.524 71.5743C215.164 72.2664 214.983 73.0476 215 73.8381C215.018 74.6286 215.233 75.4 215.623 76.0734C216.014 76.7469 216.566 77.2982 217.223 77.6711L216.518 85.5359H221.922L221.217 77.6711C221.884 77.2901 222.44 76.7243 222.828 76.034C223.215 75.3437 223.419 74.5548 223.417 73.7514Z" fill="#92E3A9" stroke="#263238" stroke-miterlimit="10"/>
<path d="M375.902 237.44H345.589C345.258 237.44 344.931 237.371 344.625 237.236C344.32 237.101 344.042 236.904 343.809 236.655C343.576 236.407 343.391 236.111 343.265 235.787C343.14 235.462 343.076 235.114 343.078 234.763V219.63C343.016 217.128 343.428 214.638 344.288 212.307C345.149 209.976 346.44 207.852 348.087 206.059C349.733 204.266 351.702 202.841 353.876 201.868C356.05 200.895 358.386 200.394 360.745 200.394C363.105 200.394 365.441 200.895 367.615 201.868C369.789 202.841 371.757 204.266 373.404 206.059C375.05 207.852 376.342 209.976 377.202 212.307C378.062 214.638 378.474 217.128 378.413 219.63V234.763C378.414 235.114 378.35 235.462 378.225 235.787C378.099 236.111 377.915 236.407 377.681 236.655C377.448 236.904 377.171 237.101 376.865 237.236C376.56 237.371 376.232 237.44 375.902 237.44ZM348.112 232.1H373.379V219.63C373.431 217.835 373.142 216.048 372.531 214.374C371.919 212.7 370.997 211.173 369.819 209.884C368.641 208.595 367.23 207.57 365.672 206.87C364.113 206.17 362.438 205.81 360.745 205.81C359.053 205.81 357.377 206.17 355.819 206.87C354.26 207.57 352.85 208.595 351.671 209.884C350.493 211.173 349.571 212.7 348.96 214.374C348.348 216.048 348.06 217.835 348.112 219.63V232.1Z" fill="#92E3A9" stroke="#263238" stroke-linecap="round" stroke-linejoin="round"/>
<path d="M379.788 230.146H341.2V264.739H379.788V230.146Z" fill="#263238" stroke="#263238" stroke-linecap="round" stroke-linejoin="round"/>
<path d="M364.506 244.569C364.509 243.779 364.314 243.001 363.941 242.317C363.568 241.632 363.03 241.065 362.383 240.673C361.735 240.281 361.001 240.079 360.256 240.087C359.511 240.094 358.781 240.312 358.141 240.717C357.501 241.122 356.973 241.7 356.613 242.392C356.252 243.084 356.072 243.865 356.089 244.656C356.106 245.446 356.321 246.218 356.712 246.891C357.103 247.565 357.655 248.116 358.312 248.489L357.606 256.341H363.023L362.306 248.375C362.956 248.002 363.502 247.454 363.888 246.786C364.274 246.118 364.488 245.353 364.506 244.569Z" fill="#92E3A9" stroke="#263238" stroke-miterlimit="10"/>
<path d="M92.0262 237.44H61.6896C61.3578 237.442 61.029 237.374 60.7222 237.24C60.4154 237.106 60.1366 236.909 59.902 236.66C59.6674 236.411 59.4816 236.115 59.3554 235.79C59.2291 235.464 59.1649 235.116 59.1665 234.764V219.63C59.1665 214.658 61.0286 209.889 64.343 206.373C67.6574 202.857 72.1527 200.882 76.84 200.882C81.5273 200.882 86.0226 202.857 89.337 206.373C92.6514 209.889 94.5134 214.658 94.5134 219.63V234.764C94.5166 235.468 94.2567 236.145 93.7906 236.647C93.3245 237.148 92.6901 237.434 92.0262 237.44ZM64.2366 232.1H89.5151V219.63C89.5151 216.074 88.1835 212.664 85.8132 210.149C83.4428 207.635 80.228 206.222 76.8758 206.222C73.5237 206.222 70.3089 207.635 67.9385 210.149C65.5682 212.664 64.2366 216.074 64.2366 219.63V232.1Z" fill="#92E3A9" stroke="#263238" stroke-linecap="round" stroke-linejoin="round"/>
<path d="M95.9243 230.146H57.3369V264.739H95.9243V230.146Z" fill="#263238" stroke="#263238" stroke-linecap="round" stroke-linejoin="round"/>
<path d="M80.6426 244.569C80.6444 243.779 80.4487 243.003 80.0755 242.32C79.7022 241.636 79.1648 241.07 78.518 240.679C77.8712 240.288 77.1382 240.086 76.3937 240.093C75.6492 240.101 74.9199 240.318 74.2802 240.722C73.6405 241.126 73.1133 241.702 72.7523 242.393C72.3913 243.084 72.2094 243.864 72.2253 244.653C72.2412 245.443 72.4543 246.214 72.8427 246.888C73.2312 247.562 73.7811 248.114 74.4365 248.489L73.731 256.341H79.1359L78.4304 248.375C79.0835 248.005 79.6324 247.457 80.021 246.789C80.4096 246.12 80.6241 245.354 80.6426 244.569Z" fill="#92E3A9" stroke="#263238" stroke-miterlimit="10"/>
<path d="M399.207 212.856C394.424 218.159 391.578 226.277 391.626 234.535C391.674 242.793 394.675 251.026 399.637 256.278C400.016 256.68 400.53 256.905 401.066 256.905C401.602 256.905 402.116 256.68 402.495 256.278C402.685 256.079 402.834 255.842 402.935 255.58C403.036 255.319 403.086 255.038 403.081 254.755C403.077 254.191 402.867 253.65 402.495 253.246C398.262 248.793 395.715 241.829 395.668 234.523C395.62 227.216 398.059 220.353 402.125 215.837C402.308 215.634 402.453 215.395 402.549 215.132C402.645 214.87 402.692 214.59 402.687 214.308C402.681 214.027 402.623 213.749 402.517 213.492C402.41 213.234 402.256 213.001 402.065 212.806C401.873 212.611 401.647 212.458 401.4 212.356C401.153 212.253 400.889 212.204 400.624 212.21C400.358 212.215 400.096 212.277 399.853 212.39C399.61 212.503 399.391 212.666 399.207 212.869V212.856Z" fill="#92E3A9"/>
<path d="M405.102 218.628C401.74 223.146 399.933 228.748 399.983 234.504C400.033 240.261 401.937 245.826 405.377 250.278C405.729 250.708 406.227 250.974 406.762 251.017C407.297 251.06 407.827 250.876 408.235 250.506C408.458 250.302 408.635 250.048 408.755 249.763C408.875 249.478 408.934 249.169 408.929 248.857C408.931 248.354 408.761 247.867 408.451 247.487C405.628 243.803 404.068 239.211 404.027 234.463C403.986 229.716 405.465 225.094 408.223 221.356C408.564 220.917 408.727 220.352 408.675 219.786C408.624 219.219 408.362 218.698 407.948 218.337C407.534 217.975 407.002 217.802 406.468 217.857C405.935 217.912 405.443 218.189 405.102 218.628Z" fill="#92E3A9"/>
<path d="M410.926 224.476C408.751 227.335 407.596 230.915 407.664 234.588C407.732 238.261 409.018 241.79 411.296 244.557C411.562 244.903 411.923 245.152 412.328 245.27C412.734 245.388 413.164 245.369 413.559 245.215C413.954 245.062 414.293 244.781 414.531 244.413C414.768 244.045 414.892 243.607 414.884 243.161C414.885 242.662 414.715 242.18 414.405 241.804C412.737 239.781 411.795 237.199 411.744 234.512C411.694 231.825 412.539 229.206 414.13 227.115C414.432 226.665 414.559 226.109 414.485 225.563C414.41 225.016 414.14 224.521 413.73 224.181C413.32 223.841 412.802 223.682 412.284 223.737C411.766 223.792 411.288 224.057 410.949 224.476H410.926Z" fill="#92E3A9"/>
<path d="M39.7954 212.856C44.5785 218.159 47.4364 226.277 47.3766 234.535C47.3168 242.793 44.3274 251.026 39.365 256.277C39.1765 256.476 38.9531 256.633 38.7075 256.739C38.4619 256.846 38.1989 256.9 37.9335 256.899C37.6682 256.898 37.4056 256.841 37.1608 256.732C36.9161 256.624 36.6939 256.465 36.5071 256.265C36.3202 256.065 36.1723 255.828 36.0718 255.567C35.9712 255.307 35.92 255.028 35.9212 254.746C35.9223 254.465 35.9756 254.186 36.0782 253.927C36.1808 253.667 36.3306 253.431 36.519 253.233C40.7401 248.781 43.2871 241.816 43.3349 234.51C43.3827 227.203 40.9434 220.341 36.8778 215.825C36.5017 215.421 36.2908 214.876 36.2908 214.309C36.2908 213.741 36.5017 213.197 36.8778 212.793C37.0695 212.587 37.2989 212.424 37.552 212.315C37.805 212.206 38.0764 212.152 38.3495 212.158C38.6225 212.164 38.8916 212.229 39.1402 212.349C39.3889 212.469 39.6118 212.642 39.7954 212.856Z" fill="#92E3A9"/>
<path d="M33.9119 218.628C37.2751 223.147 39.0805 228.75 39.0283 234.507C38.9761 240.264 37.0695 245.829 33.6249 250.278C33.2757 250.708 32.7799 250.973 32.2464 251.016C31.713 251.059 31.1852 250.875 30.779 250.506C30.557 250.301 30.3791 250.047 30.2573 249.763C30.1356 249.478 30.0729 249.169 30.0735 248.857C30.077 248.353 30.251 247.867 30.5638 247.487C33.3863 243.803 34.946 239.211 34.9873 234.463C35.0285 229.716 33.549 225.094 30.791 221.356C30.45 220.917 30.2875 220.352 30.3391 219.786C30.3906 219.219 30.6521 218.698 31.066 218.337C31.4798 217.975 32.0122 217.802 32.5459 217.857C33.0796 217.912 33.571 218.189 33.9119 218.628Z" fill="#92E3A9"/>
<path d="M28.0887 224.476C30.2602 227.339 31.4121 230.922 31.3421 234.596C31.2721 238.271 29.9848 241.801 27.706 244.569C27.5365 244.786 27.3281 244.965 27.0929 245.097C26.8576 245.228 26.6002 245.308 26.3355 245.333C26.0708 245.357 25.8041 245.326 25.5509 245.241C25.2976 245.156 25.0628 245.018 24.8601 244.836C24.6331 244.631 24.4512 244.376 24.3272 244.089C24.2032 243.802 24.1402 243.49 24.1426 243.174C24.1467 242.676 24.3161 242.195 24.621 241.816C26.3043 239.802 27.2575 237.219 27.3101 234.528C27.3627 231.837 26.5112 229.213 24.9079 227.127C24.7434 226.906 24.6217 226.653 24.55 226.382C24.4783 226.11 24.458 225.827 24.4903 225.547C24.5225 225.268 24.6067 224.998 24.7379 224.753C24.8691 224.508 25.0448 224.293 25.2547 224.121C25.6764 223.773 26.21 223.616 26.7403 223.682C27.2706 223.749 27.755 224.034 28.0887 224.476Z" fill="#92E3A9"/>
<path d="M239.955 16.6305C234.944 21.7046 227.303 24.7237 219.507 24.6729C211.711 24.6222 203.986 21.4382 199.024 16.2373C198.645 15.8353 198.432 15.29 198.432 14.7214C198.432 14.1529 198.645 13.6076 199.024 13.2056C199.41 12.8047 199.93 12.5814 200.47 12.584C200.734 12.5838 200.994 12.6399 201.237 12.7489C201.479 12.8578 201.698 13.0175 201.881 13.2183C206.079 17.6961 212.643 20.398 219.531 20.4488C226.012 20.6138 232.31 18.166 237.157 13.5988C237.543 13.2052 238.062 12.9907 238.598 13.0026C239.134 13.0145 239.643 13.2518 240.014 13.6622C240.385 14.0727 240.588 14.6227 240.576 15.1912C240.565 15.7598 240.342 16.3004 239.955 16.694V16.6305Z" fill="#92E3A9"/>
<path d="M234.478 10.3768C230.222 13.9508 224.94 15.8711 219.512 15.818C214.084 15.7649 208.837 13.7417 204.643 10.085C204.427 9.90714 204.246 9.68427 204.113 9.42998C203.98 9.1757 203.897 8.89531 203.869 8.60591C203.841 8.31651 203.869 8.02414 203.951 7.74659C204.033 7.46905 204.168 7.21215 204.347 6.99153C204.525 6.77091 204.744 6.59118 204.991 6.46329C205.237 6.3354 205.505 6.26202 205.779 6.24762C206.053 6.23322 206.327 6.27811 206.584 6.37954C206.841 6.48098 207.076 6.63683 207.274 6.83763C210.747 9.83192 215.076 11.4864 219.551 11.5302C224.026 11.574 228.383 10.0045 231.907 7.07865C232.323 6.75677 232.839 6.61537 233.35 6.68332C233.86 6.75128 234.327 7.02345 234.655 7.44429C234.984 7.86514 235.148 8.40292 235.115 8.94789C235.082 9.49286 234.854 10.0039 234.478 10.3768Z" fill="#92E3A9"/>
<path d="M228.954 4.21186C226.255 6.51218 222.88 7.73209 219.42 7.65787C215.959 7.58366 212.633 6.22005 210.025 3.80593C209.699 3.52417 209.463 3.14149 209.352 2.71126C209.241 2.28102 209.259 1.82466 209.404 1.40578C209.548 0.986896 209.813 0.626373 210.16 0.374455C210.507 0.122536 210.919 -0.00822633 211.34 0.000401027C211.814 -0.0016452 212.273 0.178615 212.631 0.507807C214.531 2.28844 216.964 3.29531 219.498 3.34875C222.033 3.40219 224.502 2.49872 226.466 0.799569C226.89 0.449682 227.427 0.292537 227.959 0.362715C228.492 0.432893 228.977 0.724643 229.306 1.17378C229.636 1.62291 229.784 2.19264 229.718 2.75763C229.652 3.32263 229.377 3.8366 228.954 4.18649V4.21186Z" fill="#92E3A9"/>
<path d="M216.398 451.298C322.862 451.298 409.168 422.675 409.168 387.365C409.168 352.056 322.862 323.432 216.398 323.432C109.934 323.432 23.6284 352.056 23.6284 387.365C23.6284 422.675 109.934 451.298 216.398 451.298Z" fill="#92E3A9"/>
<path opacity="0.5" d="M216.398 451.298C322.862 451.298 409.168 422.675 409.168 387.365C409.168 352.056 322.862 323.432 216.398 323.432C109.934 323.432 23.6284 352.056 23.6284 387.365C23.6284 422.675 109.934 451.298 216.398 451.298Z" fill="white"/>
<path d="M218.335 437.167C315.335 437.167 393.969 411.832 393.969 380.579C393.969 349.326 315.335 323.991 218.335 323.991C121.335 323.991 42.7007 349.326 42.7007 380.579C42.7007 411.832 121.335 437.167 218.335 437.167Z" fill="#263238" stroke="#263238" stroke-miterlimit="10"/>
<path d="M218.335 414.74C304.822 414.74 374.933 393.255 374.933 366.752C374.933 340.249 304.822 318.764 218.335 318.764C131.849 318.764 61.7373 340.249 61.7373 366.752C61.7373 393.255 131.849 414.74 218.335 414.74Z" fill="white" stroke="#263238" stroke-miterlimit="10"/>
<path d="M218.335 407.357C297.214 407.357 361.158 388.468 361.158 365.167C361.158 341.865 297.214 322.976 218.335 322.976C139.457 322.976 75.5127 341.865 75.5127 365.167C75.5127 388.468 139.457 407.357 218.335 407.357Z" fill="white" stroke="#263238" stroke-miterlimit="10"/>
<path d="M218.335 407.345C296.17 407.345 359.268 391.528 359.268 372.017C359.268 352.505 296.17 336.688 218.335 336.688C140.5 336.688 77.4019 352.505 77.4019 372.017C77.4019 391.528 140.5 407.345 218.335 407.345Z" fill="white" stroke="#263238" stroke-miterlimit="10"/>
<path d="M83.8591 401.192C83.9907 402.238 83.8178 403.302 83.3634 404.241C82.9091 405.179 82.1951 405.948 81.3172 406.445C80.4393 406.941 79.4393 407.14 78.4514 407.017C77.4635 406.893 76.5349 406.452 75.79 405.753C75.045 405.053 74.5194 404.129 74.2836 403.104C74.0478 402.079 74.113 401.001 74.4705 400.017C74.8281 399.032 75.4608 398.187 76.284 397.594C77.1071 397.002 78.0813 396.69 79.076 396.702C80.2691 396.635 81.439 397.069 82.3336 397.909C83.2282 398.749 83.7761 399.928 83.8591 401.192Z" fill="white" stroke="#263238" stroke-miterlimit="10"/>
<path d="M148.61 425.281C151.278 425.281 153.441 423.271 153.441 420.791C153.441 418.311 151.278 416.3 148.61 416.3C145.942 416.3 143.779 418.311 143.779 420.791C143.779 423.271 145.942 425.281 148.61 425.281Z" fill="white" stroke="#263238" stroke-miterlimit="10"/>
<path d="M236.272 424C236.404 425.046 236.231 426.11 235.776 427.049C235.322 427.987 234.608 428.756 233.73 429.253C232.852 429.749 231.852 429.948 230.864 429.825C229.876 429.701 228.948 429.26 228.203 428.56C227.458 427.861 226.932 426.937 226.696 425.912C226.461 424.887 226.526 423.809 226.883 422.825C227.241 421.84 227.874 420.995 228.697 420.402C229.52 419.81 230.494 419.498 231.489 419.51C232.682 419.443 233.852 419.877 234.746 420.717C235.641 421.557 236.189 422.736 236.272 424Z" fill="white" stroke="#263238" stroke-miterlimit="10"/>
<path d="M313.578 420.791C316.246 420.791 318.409 418.78 318.409 416.3C318.409 413.82 316.246 411.81 313.578 411.81C310.91 411.81 308.747 413.82 308.747 416.3C308.747 418.78 310.91 420.791 313.578 420.791Z" fill="white" stroke="#263238" stroke-miterlimit="10"/>
<path d="M366.754 400.279C369.422 400.279 371.585 398.268 371.585 395.788C371.585 393.308 369.422 391.298 366.754 391.298C364.086 391.298 361.923 393.308 361.923 395.788C361.923 398.268 364.086 400.279 366.754 400.279Z" fill="white" stroke="#263238" stroke-miterlimit="10"/>
<path d="M388.397 371.078C387.596 372.701 384.81 372.828 382.156 371.37C379.501 369.911 378.006 367.399 378.807 365.775C379.609 364.152 382.395 364.025 385.049 365.484C387.704 366.942 389.199 369.454 388.397 371.078Z" fill="white" stroke="#263238" stroke-miterlimit="10"/>
<path d="M48.273 371.078C49.0742 372.701 51.8603 372.828 54.5149 371.37C57.1695 369.911 58.6643 367.399 57.8631 365.775C57.0619 364.152 54.2758 364.025 51.6212 365.484C48.9666 366.942 47.4719 369.454 48.273 371.078Z" fill="white" stroke="#263238" stroke-miterlimit="10"/>
<path d="M75.2854 355.97V312.688" stroke="#263238" stroke-miterlimit="10"/>
<path d="M101.64 387.53V365.89" stroke="#263238" stroke-miterlimit="10"/>
<path d="M101.64 360.473V317.191" stroke="#263238" stroke-miterlimit="10"/>
<path d="M337.099 389.332V346.05" stroke="#263238" stroke-miterlimit="10"/>
<path d="M312.323 396.841V301.665" stroke="#263238" stroke-miterlimit="10"/>
<path d="M209.594 406.469V386.63" stroke="#263238" stroke-miterlimit="10"/>
<path d="M131.164 399.277V350.756" stroke="#263238" stroke-miterlimit="10"/>
<path d="M270.578 405.188V395.382" stroke="#263238" stroke-miterlimit="10"/>
<path d="M270.578 392.325V372.308" stroke="#263238" stroke-miterlimit="10"/>
<path d="M209.594 377.611V366.79" stroke="#263238" stroke-miterlimit="10"/>
<path d="M337.099 336.13V316.291" stroke="#263238" stroke-miterlimit="10"/>
<path d="M360.907 370.393V273.91" stroke="#263238" stroke-miterlimit="10"/>
<path d="M75.2854 306.371V282.954" stroke="#263238" stroke-miterlimit="10"/>
<path d="M296.837 235.233H291.157V251.166H296.837V235.233Z" fill="#263238" stroke="#263238" stroke-miterlimit="10"/>
<path d="M293.035 116.932H143.528V151.283H293.035V116.932Z" fill="#263238" stroke="#263238" stroke-miterlimit="10"/>
<path d="M296.837 329.23H291.157V345.162H296.837V329.23Z" fill="#263238" stroke="#263238" stroke-miterlimit="10"/>
<path d="M144.891 329.23H139.211V345.162H144.891V329.23Z" fill="#263238" stroke="#263238" stroke-miterlimit="10"/>
<path d="M144.066 143.05H138.386V158.983H144.066V143.05Z" fill="#263238" stroke="#263238" stroke-miterlimit="10"/>
<path d="M144.066 282.828H138.386V298.76H144.066V282.828Z" fill="#263238" stroke="#263238" stroke-miterlimit="10"/>
<path d="M144.066 235.131H138.386V251.064H144.066V235.131Z" fill="#263238" stroke="#263238" stroke-miterlimit="10"/>
<path d="M298.296 143.05H292.616V158.983H298.296V143.05Z" fill="#263238" stroke="#263238" stroke-miterlimit="10"/>
<path d="M298.296 282.828H292.616V298.76H298.296V282.828Z" fill="#263238" stroke="#263238" stroke-miterlimit="10"/>
<path d="M144.066 189.008H138.386V204.941H144.066V189.008Z" fill="#263238" stroke="#263238" stroke-miterlimit="10"/>
<path d="M298.296 189.008H292.616V204.941H298.296V189.008Z" fill="#263238" stroke="#263238" stroke-miterlimit="10"/>
<path d="M293.035 134.234H143.528V168.585H293.035V134.234Z" fill="white" stroke="#263238" stroke-miterlimit="10"/>
<path d="M183.694 142.999H175.156V159.82H183.694V142.999Z" fill="#92E3A9" stroke="#263238" stroke-miterlimit="10"/>
<path d="M170.6 142.999H162.062V159.82H170.6V142.999Z" fill="#92E3A9" stroke="#263238" stroke-miterlimit="10"/>
<path d="M157.519 142.999H150.715V159.82H157.519V142.999Z" fill="#92E3A9" stroke="#263238" stroke-miterlimit="10"/>
<path d="M196.787 142.999H188.25V159.82H196.787V142.999Z" fill="#92E3A9" stroke="#263238" stroke-miterlimit="10"/>
<path d="M253.742 142.999H201.332V159.82H253.742V142.999Z" fill="#92E3A9" stroke="#263238" stroke-miterlimit="10"/>
<path d="M267.709 154.911C269.914 154.911 271.703 153.014 271.703 150.674C271.703 148.334 269.914 146.437 267.709 146.437C265.503 146.437 263.715 148.334 263.715 150.674C263.715 153.014 265.503 154.911 267.709 154.911Z" fill="white" stroke="#263238" stroke-miterlimit="10"/>
<path d="M287.355 150.699C287.355 149.858 287.12 149.036 286.679 148.337C286.238 147.638 285.612 147.093 284.879 146.772C284.147 146.451 283.341 146.368 282.563 146.533C281.786 146.698 281.072 147.104 280.512 147.699C279.953 148.295 279.572 149.053 279.419 149.878C279.266 150.703 279.347 151.558 279.652 152.334C279.957 153.111 280.472 153.774 281.132 154.239C281.793 154.704 282.568 154.951 283.361 154.949C284.421 154.946 285.437 154.496 286.186 153.7C286.934 152.903 287.355 151.824 287.355 150.699Z" fill="#92E3A9" stroke="#263238" stroke-miterlimit="10"/>
<path d="M244.391 154.911C246.597 154.911 248.385 153.014 248.385 150.674C248.385 148.334 246.597 146.437 244.391 146.437C242.186 146.437 240.397 148.334 240.397 150.674C240.397 153.014 242.186 154.911 244.391 154.911Z" fill="white" stroke="#263238" stroke-miterlimit="10"/>
<path d="M287.355 168.585H149.196V180.345H287.355V168.585Z" fill="#263238" stroke="#263238" stroke-miterlimit="10"/>
<path d="M293.035 180.357H143.528V214.709H293.035V180.357Z" fill="white" stroke="#263238" stroke-miterlimit="10"/>
<path d="M170.6 189.123H162.062V205.943H170.6V189.123Z" fill="#92E3A9" stroke="#263238" stroke-miterlimit="10"/>
<path d="M196.787 189.123H188.25V205.943H196.787V189.123Z" fill="#92E3A9" stroke="#263238" stroke-miterlimit="10"/>
<path d="M183.694 189.123H175.156V205.943H183.694V189.123Z" fill="#92E3A9" stroke="#263238" stroke-miterlimit="10"/>
<path d="M157.519 189.123H150.715V205.943H157.519V189.123Z" fill="#92E3A9" stroke="#263238" stroke-miterlimit="10"/>
<path d="M253.742 189.123H201.332V205.943H253.742V189.123Z" fill="#92E3A9" stroke="#263238" stroke-miterlimit="10"/>
<path d="M267.709 201.034C269.914 201.034 271.703 199.137 271.703 196.797C271.703 194.457 269.914 192.56 267.709 192.56C265.503 192.56 263.715 194.457 263.715 196.797C263.715 199.137 265.503 201.034 267.709 201.034Z" fill="#92E3A9" stroke="#263238" stroke-miterlimit="10"/>
<path d="M287.355 196.797C287.357 195.955 287.124 195.132 286.685 194.431C286.246 193.731 285.62 193.184 284.888 192.861C284.155 192.537 283.349 192.452 282.571 192.616C281.792 192.779 281.078 193.184 280.517 193.779C279.956 194.375 279.574 195.133 279.42 195.958C279.265 196.784 279.346 197.639 279.65 198.416C279.955 199.193 280.47 199.857 281.131 200.323C281.792 200.789 282.568 201.036 283.361 201.034C284.42 201.034 285.436 200.587 286.185 199.793C286.934 198.998 287.355 197.921 287.355 196.797Z" fill="white" stroke="#263238" stroke-miterlimit="10"/>
<path d="M244.391 201.034C246.597 201.034 248.385 199.137 248.385 196.797C248.385 194.457 246.597 192.56 244.391 192.56C242.186 192.56 240.397 194.457 240.397 196.797C240.397 199.137 242.186 201.034 244.391 201.034Z" fill="white" stroke="#263238" stroke-miterlimit="10"/>
<path d="M287.355 214.708H149.196V226.467H287.355V214.708Z" fill="#263238" stroke="#263238" stroke-miterlimit="10"/>
<path d="M293.035 226.468H143.528V260.819H293.035V226.468Z" fill="white" stroke="#263238" stroke-miterlimit="10"/>
<path d="M183.694 235.233H175.156V252.053H183.694V235.233Z" fill="#92E3A9" stroke="#263238" stroke-miterlimit="10"/>
<path d="M196.787 235.233H188.25V252.053H196.787V235.233Z" fill="#92E3A9" stroke="#263238" stroke-miterlimit="10"/>
<path d="M170.6 235.233H162.062V252.053H170.6V235.233Z" fill="#92E3A9" stroke="#263238" stroke-miterlimit="10"/>
<path d="M253.742 235.233H201.332V252.053H253.742V235.233Z" fill="#92E3A9" stroke="#263238" stroke-miterlimit="10"/>
<path d="M157.519 235.233H150.715V252.053H157.519V235.233Z" fill="#92E3A9" stroke="#263238" stroke-miterlimit="10"/>
<path d="M267.709 247.144C269.914 247.144 271.703 245.247 271.703 242.907C271.703 240.567 269.914 238.671 267.709 238.671C265.503 238.671 263.715 240.567 263.715 242.907C263.715 245.247 265.503 247.144 267.709 247.144Z" fill="white" stroke="#263238" stroke-miterlimit="10"/>
<path d="M287.355 242.908C287.355 242.067 287.12 241.244 286.679 240.545C286.238 239.846 285.612 239.302 284.879 238.98C284.147 238.659 283.341 238.576 282.563 238.741C281.786 238.906 281.072 239.312 280.512 239.907C279.953 240.503 279.572 241.261 279.419 242.086C279.266 242.912 279.347 243.766 279.652 244.543C279.957 245.319 280.472 245.982 281.132 246.447C281.793 246.912 282.568 247.16 283.361 247.157C284.421 247.154 285.437 246.705 286.186 245.908C286.934 245.111 287.355 244.032 287.355 242.908Z" fill="#92E3A9" stroke="#263238" stroke-miterlimit="10"/>
<path d="M244.391 247.144C246.597 247.144 248.385 245.247 248.385 242.907C248.385 240.567 246.597 238.671 244.391 238.671C242.186 238.671 240.397 240.567 240.397 242.907C240.397 245.247 242.186 247.144 244.391 247.144Z" fill="white" stroke="#263238" stroke-miterlimit="10"/>
<path d="M287.355 260.819H149.196V272.578H287.355V260.819Z" fill="#263238" stroke="#263238" stroke-miterlimit="10"/>
<path d="M293.035 272.59H143.528V306.942H293.035V272.59Z" fill="white" stroke="#263238" stroke-miterlimit="10"/>
<path d="M196.787 281.356H188.25V298.177H196.787V281.356Z" fill="#92E3A9" stroke="#263238" stroke-miterlimit="10"/>
<path d="M170.6 281.356H162.062V298.177H170.6V281.356Z" fill="#92E3A9" stroke="#263238" stroke-miterlimit="10"/>
<path d="M183.694 281.356H175.156V298.177H183.694V281.356Z" fill="#92E3A9" stroke="#263238" stroke-miterlimit="10"/>
<path d="M157.519 281.356H150.715V298.177H157.519V281.356Z" fill="#92E3A9" stroke="#263238" stroke-miterlimit="10"/>
<path d="M253.742 281.356H201.332V298.177H253.742V281.356Z" fill="#92E3A9" stroke="#263238" stroke-miterlimit="10"/>
<path d="M267.709 293.267C269.914 293.267 271.703 291.37 271.703 289.03C271.703 286.69 269.914 284.794 267.709 284.794C265.503 284.794 263.715 286.69 263.715 289.03C263.715 291.37 265.503 293.267 267.709 293.267Z" fill="#92E3A9" stroke="#263238" stroke-miterlimit="10"/>
<path d="M287.355 289.03C287.357 288.189 287.124 287.366 286.685 286.665C286.246 285.964 285.62 285.417 284.888 285.094C284.155 284.771 283.349 284.686 282.571 284.849C281.792 285.013 281.078 285.418 280.517 286.013C279.956 286.608 279.574 287.366 279.42 288.192C279.265 289.017 279.346 289.873 279.65 290.65C279.955 291.427 280.47 292.09 281.131 292.556C281.792 293.022 282.568 293.27 283.361 293.267C284.42 293.267 285.436 292.821 286.185 292.026C286.934 291.232 287.355 290.154 287.355 289.03Z" fill="white" stroke="#263238" stroke-miterlimit="10"/>
<path d="M244.391 293.267C246.597 293.267 248.385 291.37 248.385 289.03C248.385 286.69 246.597 284.794 244.391 284.794C242.186 284.794 240.397 286.69 240.397 289.03C240.397 291.37 242.186 293.267 244.391 293.267Z" fill="white" stroke="#263238" stroke-miterlimit="10"/>
<path d="M287.355 306.942H149.196V318.701H287.355V306.942Z" fill="#263238" stroke="#263238" stroke-miterlimit="10"/>
<path d="M293.035 318.701H143.528V353.052H293.035V318.701Z" fill="white" stroke="#263238" stroke-miterlimit="10"/>
<path d="M170.6 327.466H162.062V344.287H170.6V327.466Z" fill="#92E3A9" stroke="#263238" stroke-miterlimit="10"/>
<path d="M183.694 327.466H175.156V344.287H183.694V327.466Z" fill="#92E3A9" stroke="#263238" stroke-miterlimit="10"/>
<path d="M196.787 327.466H188.25V344.287H196.787V327.466Z" fill="#92E3A9" stroke="#263238" stroke-miterlimit="10"/>
<path d="M157.519 327.466H150.715V344.287H157.519V327.466Z" fill="#92E3A9" stroke="#263238" stroke-miterlimit="10"/>
<path d="M253.742 327.466H201.332V344.287H253.742V327.466Z" fill="#92E3A9" stroke="#263238" stroke-miterlimit="10"/>
<path d="M267.709 339.378C269.914 339.378 271.703 337.481 271.703 335.141C271.703 332.801 269.914 330.904 267.709 330.904C265.503 330.904 263.715 332.801 263.715 335.141C263.715 337.481 265.503 339.378 267.709 339.378Z" fill="white" stroke="#263238" stroke-miterlimit="10"/>
<path d="M287.355 335.141C287.355 334.3 287.12 333.478 286.679 332.779C286.238 332.08 285.612 331.535 284.879 331.214C284.147 330.892 283.341 330.809 282.563 330.974C281.786 331.139 281.072 331.545 280.512 332.141C279.953 332.736 279.572 333.495 279.419 334.32C279.266 335.145 279.347 336 279.652 336.776C279.957 337.552 280.472 338.215 281.132 338.68C281.793 339.146 282.568 339.393 283.361 339.39C284.421 339.387 285.437 338.938 286.186 338.141C286.934 337.345 287.355 336.266 287.355 335.141Z" fill="#92E3A9" stroke="#263238" stroke-miterlimit="10"/>
<path d="M244.391 339.378C246.597 339.378 248.385 337.481 248.385 335.141C248.385 332.801 246.597 330.904 244.391 330.904C242.186 330.904 240.397 332.801 240.397 335.141C240.397 337.481 242.186 339.378 244.391 339.378Z" fill="white" stroke="#263238" stroke-miterlimit="10"/>
</svg>
