<svg width="415" height="342" viewBox="0 0 415 342" fill="none" xmlns="http://www.w3.org/2000/svg">
<path d="M400.128 341.506C452.01 249.734 352.499 202.734 339.69 299.643C339.041 287.137 338.354 274.429 334.2 262.615C327.891 238.107 293.609 220.348 277.234 245.157C268.578 260.529 280.057 282.092 270.103 296.659C263.824 259.999 210.595 268.599 216.2 305.382C220.408 323.054 239.079 333.338 253.983 341.333L400.128 341.506Z" fill="#F2F2F2"/>
<path d="M223.825 283.176C250.161 291.722 283.073 306.116 285.743 337.58C285.819 338.827 287.771 338.835 287.694 337.579C287.012 326.47 281.598 316.303 274.1 308.262C265.881 299.447 255.229 293.426 244.231 288.755C242.082 288.258 219.7 277.669 223.825 283.176Z" fill="white"/>
<path d="M290.362 237.158C308.588 267.592 317.26 302.795 315.256 338.213C315.183 339.468 317.135 339.464 317.207 338.213C318.761 310.375 313.803 282.558 302.728 256.971C301.484 254.681 291.449 230.566 290.362 237.158Z" fill="white"/>
<path d="M385.875 248.367C373.026 277.255 365.073 308.078 362.341 339.576C362.232 340.827 364.184 340.82 364.292 339.576C366.418 315.289 371.667 291.377 379.91 268.432C379.887 265.876 391.135 245.133 385.875 248.367V248.367Z" fill="white"/>
<path d="M159.826 339.927C174.678 313.657 146.192 300.202 142.525 327.944C142.34 324.363 142.143 320.726 140.954 317.344C139.148 310.328 129.334 305.245 124.647 312.346C122.169 316.747 125.455 322.919 122.606 327.089C120.808 316.595 105.571 319.057 107.175 329.586C108.38 334.645 113.725 337.589 117.991 339.878L159.826 339.927Z" fill="#F2F2F2"/>
<path d="M109.358 323.23C116.897 325.676 126.318 329.797 127.082 338.803C127.104 339.16 127.663 339.163 127.641 338.803C127.353 335.64 125.978 332.674 123.75 330.411C121.321 327.972 118.409 326.07 115.199 324.827C114.584 324.684 108.177 321.653 109.358 323.23Z" fill="white"/>
<path d="M128.405 310.056C133.622 318.768 136.104 328.846 135.531 338.985C135.51 339.344 136.069 339.343 136.089 338.985C136.534 331.016 135.115 323.053 131.945 315.728C131.588 315.073 128.716 308.17 128.405 310.056V310.056Z" fill="white"/>
<path d="M155.746 313.265C152.068 321.535 149.791 330.358 149.009 339.375C148.978 339.733 149.537 339.731 149.568 339.375C150.176 332.422 151.679 325.577 154.038 319.009C154.032 318.278 157.252 312.34 155.746 313.265Z" fill="white"/>
<path d="M215.94 14.4467H0.760353C0.558695 14.4467 0.365295 14.3666 0.222702 14.224C0.0801078 14.0814 0 13.888 0 13.6864C0 13.4847 0.0801078 13.2913 0.222702 13.1487C0.365295 13.0061 0.558695 12.926 0.760353 12.926H215.94C216.142 12.926 216.335 13.0061 216.478 13.1487C216.62 13.2913 216.701 13.4847 216.701 13.6864C216.701 13.888 216.62 14.0814 216.478 14.224C216.335 14.3666 216.142 14.4467 215.94 14.4467Z" fill="#3F3D56"/>
<path d="M171.687 25.852C178.826 25.852 184.613 20.0648 184.613 12.926C184.613 5.78717 178.826 0 171.687 0C164.548 0 158.761 5.78717 158.761 12.926C158.761 20.0648 164.548 25.852 171.687 25.852Z" fill="#6C63FF"/>
<path d="M215.94 63.1092H0.760353C0.558695 63.1092 0.365295 63.0291 0.222702 62.8865C0.0801078 62.7439 0 62.5505 0 62.3489C0 62.1472 0.0801078 61.9538 0.222702 61.8112C0.365295 61.6686 0.558695 61.5885 0.760353 61.5885H215.94C216.142 61.5885 216.335 61.6686 216.478 61.8112C216.62 61.9538 216.701 62.1472 216.701 62.3489C216.701 62.5505 216.62 62.7439 216.478 62.8865C216.335 63.0291 216.142 63.1092 215.94 63.1092Z" fill="#3F3D56"/>
<path d="M51.5515 74.5146C58.6903 74.5146 64.4775 68.7274 64.4775 61.5886C64.4775 54.4498 58.6903 48.6626 51.5515 48.6626C44.4127 48.6626 38.6255 54.4498 38.6255 61.5886C38.6255 68.7274 44.4127 74.5146 51.5515 74.5146Z" fill="#6C63FF"/>
<path d="M215.94 111.772H0.760353C0.558695 111.772 0.365295 111.692 0.222702 111.549C0.0801078 111.407 0 111.213 0 111.012C0 110.81 0.0801078 110.617 0.222702 110.474C0.365295 110.331 0.558695 110.251 0.760353 110.251H215.94C216.142 110.251 216.335 110.331 216.478 110.474C216.62 110.617 216.701 110.81 216.701 111.012C216.701 111.213 216.62 111.407 216.478 111.549C216.335 111.692 216.142 111.772 215.94 111.772Z" fill="#3F3D56"/>
<path d="M102.495 123.177C109.634 123.177 115.421 117.39 115.421 110.251C115.421 103.112 109.634 97.3252 102.495 97.3252C95.356 97.3252 89.5688 103.112 89.5688 110.251C89.5688 117.39 95.356 123.177 102.495 123.177Z" fill="#6C63FF"/>
<path d="M243.742 119.502C244.009 119.864 244.247 120.247 244.454 120.647L284.529 125.153L290.358 117.278L303.392 124.521L291.919 143.649L242.82 130.764C241.571 131.965 239.986 132.757 238.275 133.036C236.564 133.314 234.809 133.064 233.244 132.321C231.678 131.577 230.376 130.375 229.511 128.873C228.645 127.372 228.257 125.642 228.399 123.915C228.54 122.188 229.204 120.544 230.302 119.204C231.4 117.863 232.881 116.888 234.546 116.409C236.212 115.93 237.984 115.969 239.626 116.522C241.269 117.074 242.705 118.114 243.742 119.502Z" fill="#FFB8B8"/>
<path d="M300.544 131.372C300.221 131.23 299.921 131.042 299.651 130.815L283.545 117.246C283.157 116.92 282.842 116.517 282.619 116.063C282.395 115.609 282.268 115.113 282.246 114.608C282.224 114.102 282.307 113.597 282.49 113.125C282.673 112.653 282.952 112.224 283.309 111.866L297.925 97.1893C298.539 96.5679 299.356 96.1878 300.226 96.1184C301.097 96.0491 301.964 96.2951 302.668 96.8116L313.721 104.838C314.411 105.339 314.904 106.066 315.115 106.892C315.327 107.718 315.243 108.592 314.879 109.363L305.317 129.58C304.91 130.44 304.184 131.108 303.293 131.443C302.402 131.777 301.416 131.752 300.544 131.372H300.544Z" fill="#6C63FF"/>
<path d="M363.367 323.269L353.747 325.886L339.073 290.027L353.271 286.165L363.367 323.269Z" fill="#FFB8B8"/>
<path d="M345.369 325.212L364.68 319.957L367.858 331.639L337.625 339.865L337.419 339.106C336.63 336.209 337.025 333.118 338.516 330.512C340.007 327.906 342.472 326 345.369 325.212Z" fill="#2F2E41"/>
<path d="M281.129 330.61L271.16 330.609L266.417 292.156L281.131 292.157L281.129 330.61Z" fill="#FFB8B8"/>
<path d="M263.252 327.76H283.265V339.866H251.933V339.08C251.933 336.078 253.125 333.199 255.248 331.076C257.371 328.953 260.25 327.76 263.252 327.76Z" fill="#2F2E41"/>
<path d="M310.27 70.8699C318.07 63.0701 318.07 50.4242 310.27 42.6245C302.47 34.8247 289.824 34.8247 282.025 42.6245C274.225 50.4242 274.225 63.0701 282.025 70.8699C289.824 78.6697 302.47 78.6696 310.27 70.8699Z" fill="#FFB8B8"/>
<path d="M280.519 303.193H266.895C265.964 303.191 265.068 302.835 264.389 302.198C263.71 301.56 263.299 300.688 263.239 299.759C259.18 235.224 261.554 188.931 270.712 154.075C270.752 153.922 270.802 153.773 270.86 153.626L271.59 151.802C271.86 151.122 272.328 150.538 272.934 150.128C273.54 149.717 274.256 149.499 274.988 149.502H303.003C303.531 149.501 304.053 149.615 304.533 149.836C305.012 150.056 305.439 150.378 305.782 150.779L309.587 155.219C309.661 155.306 309.731 155.394 309.798 155.487C326.957 179.415 342.334 226.196 360.144 289.075C360.407 289.989 360.302 290.969 359.853 291.807C359.403 292.645 358.645 293.274 357.738 293.561L343.097 298.246C342.256 298.511 341.348 298.465 340.539 298.117C339.729 297.769 339.071 297.142 338.685 296.35L300.691 217.547C300.426 216.996 299.99 216.545 299.448 216.262C298.906 215.978 298.287 215.876 297.683 215.972C297.079 216.067 296.522 216.355 296.094 216.791C295.666 217.228 295.391 217.791 295.308 218.397L284.144 300.029C284.022 300.904 283.588 301.706 282.922 302.287C282.256 302.868 281.403 303.19 280.519 303.193Z" fill="#2F2E41"/>
<path d="M308.051 155.544C308.013 155.544 307.975 155.543 307.936 155.542L273.906 154.468C273.031 154.443 272.194 154.105 271.548 153.515C270.902 152.925 270.489 152.122 270.386 151.253C266.072 116.333 277.903 106.979 283.19 104.578C283.632 104.379 284.015 104.069 284.301 103.678C284.588 103.287 284.769 102.829 284.826 102.347L285.284 98.6873C285.362 98.041 285.611 97.4273 286.007 96.9101C294.296 86.172 305.615 82.7334 311.624 81.6399C312.112 81.5523 312.612 81.5647 313.094 81.6763C313.577 81.788 314.031 81.9965 314.431 82.2893C314.83 82.5821 315.166 82.953 315.417 83.3795C315.669 83.806 315.831 84.2792 315.894 84.7703L316.58 90.0258C316.65 90.5271 316.85 91.0014 317.16 91.4012C334.447 114.001 315.188 147.37 311.152 153.829C310.822 154.354 310.365 154.786 309.822 155.086C309.28 155.386 308.671 155.544 308.051 155.544Z" fill="#6C63FF"/>
<path d="M304.877 205.177C305.923 204.444 306.795 203.49 307.432 202.383C308.069 201.276 308.456 200.043 308.565 198.771C308.674 197.498 308.503 196.217 308.063 195.018C307.624 193.819 306.927 192.731 306.021 191.831L312.342 115.496L293.522 118.085L293.164 192.251C291.752 193.873 290.984 195.956 291.005 198.106C291.026 200.256 291.835 202.323 293.279 203.917C294.723 205.51 296.701 206.518 298.839 206.751C300.976 206.983 303.125 206.423 304.877 205.177H304.877Z" fill="#FFB8B8"/>
<path d="M313.572 126.488C313.219 126.488 312.869 126.437 312.531 126.337L292.326 120.395C291.841 120.252 291.39 120.01 291.003 119.684C290.615 119.358 290.3 118.955 290.076 118.501C289.852 118.047 289.725 117.552 289.703 117.046C289.681 116.54 289.764 116.035 289.946 115.563L297.423 96.247C297.735 95.4312 298.33 94.7547 299.099 94.3409C299.868 93.9272 300.761 93.8038 301.613 93.9933L314.962 96.8951C315.795 97.0765 316.538 97.5431 317.064 98.2144C317.59 98.8856 317.865 99.7194 317.842 100.572L317.221 122.928C317.194 123.879 316.799 124.783 316.117 125.447C315.436 126.112 314.523 126.485 313.572 126.488V126.488Z" fill="#6C63FF"/>
<path d="M399.957 341.398H110.263C110.061 341.398 109.868 341.318 109.725 341.176C109.583 341.033 109.503 340.84 109.503 340.638C109.503 340.436 109.583 340.243 109.725 340.1C109.868 339.958 110.061 339.878 110.263 339.878H399.957C400.159 339.878 400.353 339.958 400.495 340.1C400.638 340.243 400.718 340.436 400.718 340.638C400.718 340.84 400.638 341.033 400.495 341.176C400.353 341.318 400.159 341.398 399.957 341.398Z" fill="#3F3D56"/>
<path d="M318.122 44.3258C316.639 39.8289 315.544 35.213 314.849 30.5289C314.631 27.8019 315.33 24.8677 317.316 22.9861C321.032 19.4648 327.347 21.142 331.234 24.4745C336.851 29.2908 339.653 36.6924 340.711 44.0156C341.77 51.3388 341.304 58.7857 341.559 66.1807C341.814 73.5756 342.872 81.1794 346.642 87.5462C350.412 93.9131 357.408 98.8002 364.787 98.2583C367.766 98.0974 370.594 96.8988 372.781 94.8705C373.855 93.8491 374.668 92.5852 375.153 91.1846C375.637 89.7841 375.779 88.2879 375.565 86.8214C379.337 93.5752 377.425 102.729 371.799 108.038C366.173 113.347 357.52 114.848 350.124 112.581C342.728 110.315 336.641 104.631 333.005 97.8028C329.369 90.975 328.036 83.0876 328.23 75.3544C328.378 69.4159 329.387 63.4289 328.384 57.5739C327.38 51.719 323.716 45.7741 317.938 44.3953L318.122 44.3258Z" fill="#2F2E41"/>
<path d="M292.174 52.0234C291.189 55.3143 287.421 57.3436 284.031 56.787C280.641 56.2304 277.854 53.4388 276.824 50.1617C275.893 46.8146 276.274 43.2383 277.89 40.1627C278.78 38.3191 280.025 36.6693 281.554 35.3076C283.083 33.9459 284.865 32.899 286.799 32.2269C288.744 31.5824 290.815 31.4148 292.838 31.738C294.861 32.0613 296.777 32.866 298.424 34.0845C298.599 33.3452 298.969 32.666 299.494 32.1168C300.019 31.5676 300.681 31.1683 301.412 30.96C302.883 30.5635 304.436 30.5864 305.895 31.0262C310.099 32.2243 313.743 34.8747 316.177 38.506C318.58 42.1262 320.17 46.2243 320.837 50.5181C321.984 56.9572 321.561 63.9933 317.944 69.4431C314.328 74.8928 306.929 78.1107 300.927 75.5125C300.553 73.5992 301.439 71.6726 302.465 70.0146C303.491 68.3566 304.707 66.7415 305.101 64.8321C305.495 62.9227 304.739 60.5871 302.892 59.9627C301.317 59.43 299.637 60.2931 297.977 60.3973C297.034 60.4565 296.092 60.2667 295.246 59.8471C294.4 59.4274 293.679 58.7926 293.155 58.0064C292.632 57.2201 292.325 56.3101 292.264 55.3675C292.203 54.4249 292.391 53.4829 292.81 52.636L292.174 52.0234Z" fill="#2F2E41"/>
</svg>
